<svg xmlns="http://www.w3.org/2000/svg" width="24" height="23.999" viewBox="0 0 24 23.999">
  <g id="Action" transform="translate(0.133 0.112)">
    <path id="Trash" d="M4.244,24a2,2,0,0,1-2-2V5.746A1.99,1.99,0,0,1,2.679,4.5H0V3H6.745V1.69A1.691,1.691,0,0,1,8.434,0h7.121a1.691,1.691,0,0,1,1.689,1.69V3H24V4.5H21.31a1.99,1.99,0,0,1,.434,1.243V22a2,2,0,0,1-2,2Zm-.5-1.5h16.5V5.247h-4.49a1.58,1.58,0,0,1-.2.012H8.434a1.57,1.57,0,0,1-.2-.012H3.744Zm12-19.5V1.5h-7.5V3Zm0,15.752V9h1.5v9.749Zm-4.5,0V9h1.5v9.749Zm-4.5,0V9h1.5v9.749Z" transform="translate(-0.133 -0.112)" fill="#fc5658"/>
  </g>
</svg>
