<svg xmlns="http://www.w3.org/2000/svg" width="17.052" height="19.488" viewBox="0 0 17.052 19.488">
  <path id="Icon_awesome-calendar-alt" data-name="Icon awesome-calendar-alt" d="M0,17.661a1.827,1.827,0,0,0,1.827,1.827h13.4a1.827,1.827,0,0,0,1.827-1.827V7.308H0ZM12.18,10.2a.458.458,0,0,1,.457-.457h1.522a.458.458,0,0,1,.457.457v1.522a.458.458,0,0,1-.457.457H12.637a.458.458,0,0,1-.457-.457Zm0,4.872a.458.458,0,0,1,.457-.457h1.522a.458.458,0,0,1,.457.457v1.522a.458.458,0,0,1-.457.457H12.637a.458.458,0,0,1-.457-.457ZM7.308,10.2a.458.458,0,0,1,.457-.457H9.287a.458.458,0,0,1,.457.457v1.522a.458.458,0,0,1-.457.457H7.765a.458.458,0,0,1-.457-.457Zm0,4.872a.458.458,0,0,1,.457-.457H9.287a.458.458,0,0,1,.457.457v1.522a.458.458,0,0,1-.457.457H7.765a.458.458,0,0,1-.457-.457ZM2.436,10.2a.458.458,0,0,1,.457-.457H4.415a.458.458,0,0,1,.457.457v1.522a.458.458,0,0,1-.457.457H2.893a.458.458,0,0,1-.457-.457Zm0,4.872a.458.458,0,0,1,.457-.457H4.415a.458.458,0,0,1,.457.457v1.522a.458.458,0,0,1-.457.457H2.893a.458.458,0,0,1-.457-.457ZM15.225,2.436H13.4V.609A.611.611,0,0,0,12.789,0H11.571a.611.611,0,0,0-.609.609V2.436H6.09V.609A.611.611,0,0,0,5.481,0H4.263a.611.611,0,0,0-.609.609V2.436H1.827A1.827,1.827,0,0,0,0,4.263V6.09H17.052V4.263A1.827,1.827,0,0,0,15.225,2.436Z" fill="#fff"/>
</svg>
