<svg xmlns="http://www.w3.org/2000/svg" width="19.004" height="17.646" viewBox="0 0 19.004 17.646">
  <path id="Icon_ionic-ios-star" data-name="Icon ionic-ios-star" d="M20.533,9.483h-6.24L12.4,3.825a.687.687,0,0,0-1.29,0l-1.9,5.659H2.929a.681.681,0,0,0-.679.679.5.5,0,0,0,.013.115.652.652,0,0,0,.284.479L7.675,14.37,5.707,20.092a.681.681,0,0,0,.233.764.656.656,0,0,0,.382.165.832.832,0,0,0,.424-.153L11.752,17.3l5.005,3.567a.8.8,0,0,0,.424.153.609.609,0,0,0,.378-.165.672.672,0,0,0,.233-.764L15.824,14.37l5.086-3.648.123-.106a.712.712,0,0,0,.221-.454A.718.718,0,0,0,20.533,9.483Z" transform="translate(-2.25 -3.375)" fill="#8e8e8e"/>
</svg>
