<svg xmlns="http://www.w3.org/2000/svg" xmlns:xlink="http://www.w3.org/1999/xlink" width="235.15" height="36.05" viewBox="0 0 235.15 36.05">
  <defs>
    <linearGradient id="linear-gradient" x1="0.357" y1="0.5" x2="0.595" y2="1.288" gradientUnits="objectBoundingBox">
      <stop offset="0" stop-color="#00f8bd"/>
      <stop offset="1" stop-color="#00dafa"/>
    </linearGradient>
  </defs>
  <path id="Gradient_Overlay" data-name="Gradient Overlay" d="M264.731,67.049v-35h14.15a12.4,12.4,0,0,1,5.8,1.3,9.876,9.876,0,0,1,3.95,3.675,10.584,10.584,0,0,1,1.45,5.625v.7a10.478,10.478,0,0,1-1.475,5.6,9.953,9.953,0,0,1-4,3.7,12.325,12.325,0,0,1-5.725,1.3h-8.1v13.1Zm6.05-18.55h7.5a6.051,6.051,0,0,0,4.175-1.4,4.886,4.886,0,0,0,1.575-3.85v-.5a4.925,4.925,0,0,0-1.55-3.85,6.032,6.032,0,0,0-4.2-1.4h-7.5Zm23.3,18.55v-24.7h5.65V45.2h.85a3.927,3.927,0,0,1,1.85-2.25,6.451,6.451,0,0,1,3.1-.7h3v5.1h-3.1a6.016,6.016,0,0,0-4.05,1.325,5.07,5.07,0,0,0-1.55,4.075v14.3Zm29.35.7a14.116,14.116,0,0,1-6.625-1.525,11.339,11.339,0,0,1-4.6-4.35,13.051,13.051,0,0,1-1.675-6.775v-.8a13.187,13.187,0,0,1,1.675-6.8,11.124,11.124,0,0,1,4.6-4.35,14.309,14.309,0,0,1,6.625-1.5,14.157,14.157,0,0,1,6.6,1.5,11.162,11.162,0,0,1,4.575,4.35,13.187,13.187,0,0,1,1.675,6.8v.8a13.051,13.051,0,0,1-1.675,6.775,11.379,11.379,0,0,1-4.575,4.35A13.966,13.966,0,0,1,323.431,67.749Zm0-5.1a6.924,6.924,0,0,0,5.15-2.025,7.728,7.728,0,0,0,2-5.675v-.5a7.728,7.728,0,0,0-2-5.675,7.561,7.561,0,0,0-10.3,0,7.728,7.728,0,0,0-2,5.675v.5a7.728,7.728,0,0,0,2,5.675A6.924,6.924,0,0,0,323.431,62.649Zm14.2,4.4,9.2-12.45-9.05-12.25h6.7l6.05,8.55h.85l6.05-8.55h6.65l-9.05,12.25,9.2,12.45h-6.75l-6.1-8.7h-.85l-6.1,8.7Zm30.75,0v-24.7h5.75v24.7Zm2.85-27.85a3.838,3.838,0,0,1-2.675-1.025,3.863,3.863,0,0,1,0-5.45,3.838,3.838,0,0,1,2.675-1.025,3.79,3.79,0,0,1,2.725,1.025,3.991,3.991,0,0,1,0,5.45A3.79,3.79,0,0,1,371.231,39.2Zm9.2,27.85v-24.7h5.65V45.1h.85a6,6,0,0,1,2.175-2.225,7.485,7.485,0,0,1,4.075-.975,7.719,7.719,0,0,1,4.35,1.1,7.2,7.2,0,0,1,2.5,2.8h.8a7.333,7.333,0,0,1,2.45-2.8,7.98,7.98,0,0,1,4.55-1.1,8.731,8.731,0,0,1,4.175,1,7.5,7.5,0,0,1,3,2.95,9.579,9.579,0,0,1,1.125,4.85v16.35h-5.75V51.1a3.965,3.965,0,0,0-4.35-4.4,4.566,4.566,0,0,0-3.575,1.475,6.115,6.115,0,0,0-1.325,4.225v14.65h-5.7V51.1a3.965,3.965,0,0,0-4.35-4.4,4.549,4.549,0,0,0-3.6,1.475,6.192,6.192,0,0,0-1.3,4.225v14.65Zm53.05.7a13.176,13.176,0,0,1-6.525-1.575,11.087,11.087,0,0,1-4.4-4.45A13.78,13.78,0,0,1,420.981,55v-.6a13.925,13.925,0,0,1,1.55-6.75,11.007,11.007,0,0,1,4.35-4.425,12.931,12.931,0,0,1,6.45-1.575,12.276,12.276,0,0,1,6.3,1.575,10.864,10.864,0,0,1,4.2,4.425,14.078,14.078,0,0,1,1.5,6.65v2.05h-18.55a6.252,6.252,0,0,0,2.05,4.65,6.925,6.925,0,0,0,4.8,1.75,6.023,6.023,0,0,0,4.15-1.225,8.4,8.4,0,0,0,2.05-2.775l4.75,2.45a15.047,15.047,0,0,1-2.025,2.875,10.966,10.966,0,0,1-3.525,2.6A12.619,12.619,0,0,1,433.481,67.749ZM426.831,52h12.65a5.528,5.528,0,0,0-1.875-3.9A6.473,6.473,0,0,0,426.831,52Zm26.65,15.75a4.355,4.355,0,0,1-3.175-1.25,4.288,4.288,0,0,1-1.275-3.2,4.227,4.227,0,0,1,1.275-3.15,4.355,4.355,0,0,1,3.175-1.25,4.271,4.271,0,0,1,3.15,1.25,4.333,4.333,0,0,1,1.25,3.2,4.25,4.25,0,0,1-1.25,3.175A4.317,4.317,0,0,1,453.481,67.749Zm9.8-.7v-24.7h5.75v24.7Zm2.85-27.85a3.838,3.838,0,0,1-2.675-1.025,3.863,3.863,0,0,1,0-5.45,3.838,3.838,0,0,1,2.675-1.025,3.79,3.79,0,0,1,2.725,1.025,3.991,3.991,0,0,1,0,5.45A3.79,3.79,0,0,1,466.131,39.2Zm20.9,28.55a14.116,14.116,0,0,1-6.625-1.525,11.338,11.338,0,0,1-4.6-4.35,13.051,13.051,0,0,1-1.675-6.775v-.8a13.186,13.186,0,0,1,1.675-6.8,11.123,11.123,0,0,1,4.6-4.35,14.309,14.309,0,0,1,6.625-1.5,14.157,14.157,0,0,1,6.6,1.5,11.162,11.162,0,0,1,4.575,4.35,13.186,13.186,0,0,1,1.675,6.8v.8a13.051,13.051,0,0,1-1.675,6.775,11.379,11.379,0,0,1-4.575,4.35A13.966,13.966,0,0,1,487.031,67.749Zm0-5.1a6.925,6.925,0,0,0,5.15-2.025,7.728,7.728,0,0,0,2-5.675v-.5a7.728,7.728,0,0,0-2-5.675,7.561,7.561,0,0,0-10.3,0,7.728,7.728,0,0,0-2,5.675v.5a7.728,7.728,0,0,0,2,5.675A6.925,6.925,0,0,0,487.031,62.649Z" transform="translate(-264.731 -31.699)" fill="url(#linear-gradient)"/>
</svg>
