<svg xmlns="http://www.w3.org/2000/svg" width="427" height="249" viewBox="0 0 427 249">
  <g id="Group_163" data-name="Group 163" transform="translate(-699 -947)">
    <g id="Group_160" data-name="Group 160">
      <g id="Rectangle_107" data-name="Rectangle 107" transform="translate(699 947)" fill="#fff" stroke="#e2e2e2" stroke-width="1">
        <rect width="212" height="145" rx="17" stroke="none"/>
        <rect x="0.5" y="0.5" width="211" height="144" rx="16.5" fill="none"/>
      </g>
      <path id="Icon_awesome-user-alt" data-name="Icon awesome-user-alt" d="M22.922,25.787A12.894,12.894,0,1,0,10.028,12.894,12.9,12.9,0,0,0,22.922,25.787Zm11.461,2.865H29.449a15.586,15.586,0,0,1-13.055,0H11.461A11.46,11.46,0,0,0,0,40.113v1.433a4.3,4.3,0,0,0,4.3,4.3H41.546a4.3,4.3,0,0,0,4.3-4.3V40.113A11.46,11.46,0,0,0,34.383,28.652Z" transform="translate(782 997)" fill="#cecece"/>
    </g>
    <g id="Group_161" data-name="Group 161" transform="translate(106 46)">
      <g id="Rectangle_107-2" data-name="Rectangle 107" transform="translate(699 947)" fill="#fff" stroke="#e2e2e2" stroke-width="1">
        <rect width="212" height="145" rx="17" stroke="none"/>
        <rect x="0.5" y="0.5" width="211" height="144" rx="16.5" fill="none"/>
      </g>
      <path id="Icon_awesome-user-alt-2" data-name="Icon awesome-user-alt" d="M22.922,25.787A12.894,12.894,0,1,0,10.028,12.894,12.9,12.9,0,0,0,22.922,25.787Zm11.461,2.865H29.449a15.586,15.586,0,0,1-13.055,0H11.461A11.46,11.46,0,0,0,0,40.113v1.433a4.3,4.3,0,0,0,4.3,4.3H41.546a4.3,4.3,0,0,0,4.3-4.3V40.113A11.46,11.46,0,0,0,34.383,28.652Z" transform="translate(782 997)" fill="#cecece"/>
    </g>
    <g id="Group_162" data-name="Group 162" transform="translate(215 104)">
      <g id="Rectangle_107-3" data-name="Rectangle 107" transform="translate(699 947)" fill="#fff" stroke="#e2e2e2" stroke-width="1">
        <rect width="212" height="145" rx="17" stroke="none"/>
        <rect x="0.5" y="0.5" width="211" height="144" rx="16.5" fill="none"/>
      </g>
      <path id="Icon_awesome-user-alt-3" data-name="Icon awesome-user-alt" d="M22.922,25.787A12.894,12.894,0,1,0,10.028,12.894,12.9,12.9,0,0,0,22.922,25.787Zm11.461,2.865H29.449a15.586,15.586,0,0,1-13.055,0H11.461A11.46,11.46,0,0,0,0,40.113v1.433a4.3,4.3,0,0,0,4.3,4.3H41.546a4.3,4.3,0,0,0,4.3-4.3V40.113A11.46,11.46,0,0,0,34.383,28.652Z" transform="translate(782 997)" fill="#cecece"/>
    </g>
  </g>
</svg>
