<svg xmlns="http://www.w3.org/2000/svg" width="10.698" height="11.812" viewBox="0 0 10.698 11.812">
  <path id="Icon_ionic-md-share" data-name="Icon ionic-md-share" d="M13.41,11.463a1.624,1.624,0,0,0-1.162.445L7.986,9.445a2,2,0,0,0,.06-.416,2,2,0,0,0-.06-.416l4.2-2.434a1.783,1.783,0,1,0-.566-1.306,1.984,1.984,0,0,0,.06.416L7.48,7.724a1.794,1.794,0,0,0-1.222-.475A1.764,1.764,0,0,0,4.5,9.03a1.794,1.794,0,0,0,3.01,1.306L11.741,12.8a1.489,1.489,0,0,0-.06.386,1.728,1.728,0,1,0,1.728-1.721Z" transform="translate(-4.5 -3.094)" fill="#8c8f94"/>
</svg>
