<svg xmlns="http://www.w3.org/2000/svg" width="20.935" height="19.997" viewBox="0 0 20.935 19.997">
  <path id="Icon_awesome-eye" data-name="Icon awesome-eye" d="M20.809,10.948A11.658,11.658,0,0,0,10.468,4.5,11.659,11.659,0,0,0,.127,10.948a1.176,1.176,0,0,0,0,1.061,11.658,11.658,0,0,0,10.341,6.448,11.659,11.659,0,0,0,10.341-6.448A1.176,1.176,0,0,0,20.809,10.948ZM10.468,16.712A5.234,5.234,0,1,1,15.7,11.478,5.234,5.234,0,0,1,10.468,16.712Zm0-8.723a3.464,3.464,0,0,0-.92.138,1.739,1.739,0,0,1-2.432,2.432,3.481,3.481,0,1,0,3.351-2.569Z" transform="translate(0 -1.668)" fill="#8f8d8d"/>
  <line id="Line_2" data-name="Line 2" x1="16" y2="18" transform="translate(2.368 0.332)" fill="none" stroke="#707070" stroke-width="1"/>
  <line id="Line_3" data-name="Line 3" x1="16" y2="18" transform="translate(3.368 1.332)" fill="none" stroke="#fff" stroke-width="2"/>
</svg>
