<svg xmlns="http://www.w3.org/2000/svg" width="21.974" height="18.484" viewBox="0 0 21.974 18.484">
  <path id="Icon_awesome-arrow-right" data-name="Icon awesome-arrow-right" d="M6.073,3.885l.94-.94a1.012,1.012,0,0,1,1.435,0l8.228,8.224a1.012,1.012,0,0,1,0,1.435L8.448,20.833a1.012,1.012,0,0,1-1.435,0l-.94-.94a1.017,1.017,0,0,1,.017-1.452l5.1-4.859H-3.984A1.013,1.013,0,0,1-5,12.566V11.212A1.013,1.013,0,0,1-3.984,10.2H11.19L6.09,5.337A1.01,1.01,0,0,1,6.073,3.885Z" transform="translate(5 -2.647)"/>
</svg>
