<svg xmlns="http://www.w3.org/2000/svg" width="21.731" height="21.73" viewBox="0 0 21.731 21.73">
  <path id="Icon_awesome-linkedin-in" data-name="Icon awesome-linkedin-in" d="M4.864,21.731H.359V7.223H4.864ZM2.609,5.244A2.622,2.622,0,1,1,5.218,2.61,2.631,2.631,0,0,1,2.609,5.244ZM21.726,21.731h-4.5V14.669c0-1.683-.034-3.842-2.342-3.842-2.342,0-2.7,1.829-2.7,3.72v7.184h-4.5V7.223h4.321V9.2h.063a4.734,4.734,0,0,1,4.263-2.343c4.56,0,5.4,3,5.4,6.9v7.97Z" transform="translate(0 -0.001)" fill="#fff"/>
</svg>
