<svg xmlns="http://www.w3.org/2000/svg" width="24.402" height="19.819" viewBox="0 0 24.402 19.819">
  <path id="Icon_awesome-twitter" data-name="Icon awesome-twitter" d="M21.894,8.32c.015.217.015.434.015.65A14.132,14.132,0,0,1,7.68,23.2,14.133,14.133,0,0,1,0,20.955a10.346,10.346,0,0,0,1.208.062A10.016,10.016,0,0,0,7.417,18.88a5.01,5.01,0,0,1-4.676-3.468,6.307,6.307,0,0,0,.945.077A5.29,5.29,0,0,0,5,15.319,5,5,0,0,1,.991,10.41v-.062a5.037,5.037,0,0,0,2.261.635A5.009,5.009,0,0,1,1.7,4.294,14.216,14.216,0,0,0,12.015,9.528a5.646,5.646,0,0,1-.124-1.146A5.006,5.006,0,0,1,20.547,4.96a9.847,9.847,0,0,0,3.174-1.208,4.988,4.988,0,0,1-2.2,2.756,10.026,10.026,0,0,0,2.88-.774A10.751,10.751,0,0,1,21.894,8.32Z" transform="translate(0 -3.381)" fill="#fff"/>
</svg>
