<svg xmlns="http://www.w3.org/2000/svg" width="22.229" height="22.224" viewBox="0 0 22.229 22.224">
  <path id="Icon_awesome-instagram" data-name="Icon awesome-instagram" d="M11.112,7.652a5.7,5.7,0,1,0,5.7,5.7A5.689,5.689,0,0,0,11.112,7.652Zm0,9.4a3.7,3.7,0,1,1,3.7-3.7,3.711,3.711,0,0,1-3.7,3.7Zm7.26-9.636A1.329,1.329,0,1,1,17.043,6.09,1.326,1.326,0,0,1,18.372,7.419Zm3.774,1.349a6.577,6.577,0,0,0-1.8-4.657,6.62,6.62,0,0,0-4.657-1.8c-1.835-.1-7.335-.1-9.169,0a6.611,6.611,0,0,0-4.657,1.79,6.6,6.6,0,0,0-1.8,4.657c-.1,1.835-.1,7.335,0,9.169a6.577,6.577,0,0,0,1.8,4.657,6.629,6.629,0,0,0,4.657,1.8c1.835.1,7.335.1,9.169,0a6.577,6.577,0,0,0,4.657-1.8,6.62,6.62,0,0,0,1.8-4.657c.1-1.835.1-7.33,0-9.164ZM19.775,19.9a3.75,3.75,0,0,1-2.113,2.113c-1.463.58-4.934.446-6.551.446s-5.093.129-6.551-.446A3.75,3.75,0,0,1,2.448,19.9C1.868,18.438,2,14.966,2,13.35S1.873,8.257,2.448,6.8A3.75,3.75,0,0,1,4.561,4.686c1.463-.58,4.934-.446,6.551-.446s5.093-.129,6.551.446A3.75,3.75,0,0,1,19.775,6.8c.58,1.463.446,4.934.446,6.551S20.356,18.443,19.775,19.9Z" transform="translate(0.005 -2.238)" fill="#fff"/>
</svg>
