<svg xmlns="http://www.w3.org/2000/svg" width="63.325" height="47.494" viewBox="0 0 63.325 47.494">
  <path id="Icon_awesome-image" data-name="Icon awesome-image" d="M57.388,51.994H5.937A5.937,5.937,0,0,1,0,46.057V10.437A5.937,5.937,0,0,1,5.937,4.5H57.388a5.937,5.937,0,0,1,5.937,5.937v35.62A5.937,5.937,0,0,1,57.388,51.994ZM13.852,11.426a6.926,6.926,0,1,0,6.926,6.926A6.926,6.926,0,0,0,13.852,11.426ZM7.916,44.078H55.41V30.226L44.586,19.4a1.484,1.484,0,0,0-2.1,0L25.726,36.163,18.86,29.3a1.484,1.484,0,0,0-2.1,0L7.916,38.142Z" transform="translate(0 -4.5)" fill="#bebebe"/>
</svg>
